<svg width="488" height="11" viewBox="0 0 488 11" fill="none" xmlns="http://www.w3.org/2000/svg">
<path d="M5 9.69369C2.69875 9.69369 0.833328 7.82827 0.833328 5.52702C0.833328 3.22577 2.69875 1.36035 5 1.36035C7.30125 1.36035 9.16666 3.22577 9.16666 5.52702C9.16666 7.82827 7.30125 9.69369 5 9.69369Z" fill="#E11D48"/>
<path d="M20 9.69369C17.6987 9.69369 15.8333 7.82827 15.8333 5.52702C15.8333 3.22577 17.6987 1.36035 20 1.36035C22.3012 1.36035 24.1667 3.22577 24.1667 5.52702C24.1667 7.82827 22.3012 9.69369 20 9.69369Z" fill="#FBBF24"/>
<path d="M35 9.69369C32.6987 9.69369 30.8333 7.82827 30.8333 5.52702C30.8333 3.22577 32.6987 1.36035 35 1.36035C37.3012 1.36035 39.1667 3.22577 39.1667 5.52702C39.1667 7.82827 37.3012 9.69369 35 9.69369Z" fill="#22C55E"/>
</svg>
